<?xml version="1.0" standalone="no"?>
<!DOCTYPE svg PUBLIC "-//W3C//DTD SVG 20010904//EN"
 "http://www.w3.org/TR/2001/REC-SVG-20010904/DTD/svg10.dtd">
<svg version="1.0" xmlns="http://www.w3.org/2000/svg"
 width="601.000000pt" height="415.000000pt" viewBox="0 0 601.000000 415.000000"
 preserveAspectRatio="xMidYMid meet">

<g transform="translate(0.000000,415.000000) scale(0.100000,-0.100000)"
fill="#000000" stroke="none">
<path d="M770 3083 c19 -34 36 -60 38 -58 7 7 -35 90 -53 105 -13 10 -8 -5 15
-47z"/>
<path d="M839 3013 c-2 -35 -1 -73 2 -85 9 -39 19 61 10 107 -8 39 -8 39 -12
-22z"/>
<path d="M755 2993 c15 -29 37 -61 48 -70 20 -18 20 -18 7 7 -13 25 -56 87
-73 105 -6 6 3 -14 18 -42z"/>
<path d="M760 2889 c-1 -85 44 -196 68 -166 23 29 40 76 45 127 6 49 5 51 -4
20 -6 -19 -21 -59 -34 -89 -25 -59 -25 -58 -45 44 -14 71 -29 104 -30 64z"/>
<path d="M1656 2848 c-15 -25 -78 -132 -146 -248 -24 -41 -50 -83 -58 -92 -10
-13 -11 -21 -2 -37 10 -20 13 -19 58 27 26 26 66 69 89 95 38 43 63 59 63 39
0 -4 -31 -53 -68 -108 -38 -55 -71 -107 -74 -116 -10 -24 64 -60 137 -65 162
-14 285 99 285 260 0 117 -76 220 -184 252 -67 20 -83 19 -100 -7z"/>
<path d="M1560 2839 c-45 -27 -87 -66 -110 -104 -21 -33 -42 -115 -31 -115 8
0 131 159 164 211 22 35 22 35 -23 8z"/>
<path d="M760 2704 c0 -37 5 -68 14 -80 14 -17 17 -18 42 -4 33 18 90 87 81
97 -4 4 -25 -11 -48 -33 -33 -32 -41 -36 -49 -24 -5 8 -10 24 -10 35 0 11 -7
31 -15 45 -14 24 -14 22 -15 -36z"/>
<path d="M1051 2634 c0 -11 3 -14 6 -6 3 7 2 16 -1 19 -3 4 -6 -2 -5 -13z"/>
<path d="M4193 2625 c-19 -8 -42 -32 -59 -62 -16 -26 -45 -70 -66 -96 -44 -57
-53 -83 -43 -135 8 -45 21 -62 47 -62 10 0 29 -11 42 -25 13 -14 30 -25 38
-25 8 0 29 11 48 25 51 38 110 28 110 -19 0 -31 27 -53 75 -61 53 -10 65 -21
65 -60 0 -42 27 -55 52 -25 15 19 21 20 62 9 55 -14 110 -5 137 22 23 23 26
87 4 130 -11 20 -14 44 -10 77 6 41 2 56 -29 115 -20 38 -36 79 -36 91 0 55
-98 99 -203 90 -41 -4 -82 0 -122 10 -70 19 -71 19 -112 1z"/>
<path d="M714 2583 c5 -52 30 -102 52 -103 28 -1 126 101 111 116 -2 2 -27
-19 -55 -47 -52 -51 -72 -56 -72 -16 0 12 -9 40 -20 62 l-20 40 4 -52z"/>
<path d="M1058 2563 c-9 -26 -16 -49 -14 -50 7 -7 37 68 34 83 -2 8 -11 -6
-20 -33z"/>
<path d="M1012 2585 c0 -11 3 -29 8 -40 11 -25 11 1 0 35 -6 20 -8 21 -8 5z"/>
<path d="M680 2477 c0 -46 22 -111 41 -123 23 -14 152 86 135 104 -7 6 -87
-47 -99 -65 -15 -23 -35 -1 -41 46 -3 26 -13 56 -21 67 -13 17 -14 15 -15 -29z"/>
<path d="M1011 2488 c-1 -20 3 -39 7 -42 12 -7 50 21 63 47 10 18 6 17 -19 -7
l-31 -29 -9 34 -10 34 -1 -37z"/>
<path d="M977 2435 c3 -16 9 -37 14 -45 15 -27 10 11 -6 45 l-14 30 6 -30z"/>
<path d="M1059 2418 c-8 -7 -21 -21 -28 -31 -12 -15 -12 -17 0 -12 13 5 55 55
46 55 -2 0 -10 -6 -18 -12z"/>
<path d="M606 2363 c11 -45 31 -86 57 -117 22 -28 26 -29 54 -17 36 15 130 96
122 105 -9 10 -92 -29 -113 -53 -11 -11 -23 -21 -27 -21 -4 0 -17 21 -29 47
-33 75 -78 114 -64 56z"/>
<path d="M960 2354 c0 -16 6 -39 14 -49 13 -18 16 -18 41 -5 14 8 31 23 37 34
10 18 8 18 -20 -2 -38 -28 -52 -28 -52 1 0 12 -5 29 -10 37 -7 11 -10 8 -10
-16z"/>
<path d="M910 2302 c0 -18 26 -66 44 -81 12 -10 20 -9 44 3 35 18 61 46 42 46
-6 0 -25 -9 -41 -21 -29 -21 -49 -19 -49 5 0 18 -39 65 -40 48z"/>
<path d="M563 2265 c3 -11 8 -33 12 -50 3 -16 20 -51 38 -77 l31 -46 46 23
c54 27 110 74 110 92 0 21 -61 -4 -100 -42 -20 -19 -40 -35 -45 -35 -6 0 -19
28 -30 62 -13 38 -30 67 -44 77 -22 14 -23 14 -18 -4z"/>
<path d="M890 2232 c0 -14 23 -69 38 -90 8 -12 14 -11 38 1 35 18 72 57 55 57
-7 0 -28 -12 -47 -26 l-34 -26 -10 27 c-13 35 -40 73 -40 57z"/>
<path d="M860 2152 c0 -14 43 -74 61 -85 11 -7 27 -2 60 19 34 22 40 29 25 32
-10 2 -31 -5 -47 -17 -15 -12 -30 -21 -32 -21 -3 0 -10 14 -17 30 -12 29 -50
61 -50 42z"/>
<path d="M525 2113 c11 -43 56 -114 81 -125 38 -18 86 -1 139 48 l50 45 -44
-5 c-28 -3 -56 -15 -82 -36 l-39 -31 -15 34 c-16 39 -67 97 -85 97 -8 0 -10
-9 -5 -27z"/>
<path d="M832 2041 c-11 -6 -7 -13 16 -30 37 -26 113 -29 137 -4 26 25 -4 37
-44 17 -29 -14 -33 -14 -57 5 -30 23 -33 24 -52 12z"/>
<path d="M4620 2032 c0 -4 -5 -36 -11 -72 -6 -36 -14 -130 -19 -210 -4 -80
-16 -174 -25 -210 -11 -45 -17 -116 -18 -232 -1 -142 -4 -168 -17 -170 -8 -1
-62 -2 -120 -3 -58 0 -115 -4 -128 -9 l-23 -9 4 159 c5 189 30 448 47 486 18
39 -4 116 -37 129 -61 23 -195 3 -263 -40 -34 -21 -36 -25 -65 -112 -14 -42
-36 -86 -50 -99 -13 -12 -26 -34 -29 -48 -4 -15 -13 -40 -21 -57 -58 -124 -64
-134 -126 -214 l-27 -34 -64 66 c-38 41 -72 67 -84 67 -25 0 -78 -38 -156
-113 -50 -47 -58 -60 -58 -91 0 -27 9 -45 35 -75 41 -45 42 -51 13 -51 -26 0
-105 -79 -124 -126 -8 -18 -14 -53 -14 -78 0 -42 6 -52 99 -163 100 -120 159
-176 219 -207 36 -18 37 -23 17 -49 -7 -11 -16 -36 -20 -56 l-6 -38 -147 -11
c-250 -19 -523 -71 -610 -116 -48 -25 -58 -43 -36 -67 27 -30 47 -39 144 -66
293 -81 1115 -134 1610 -103 85 5 230 14 322 20 426 26 756 103 746 173 -4 28
-70 61 -178 89 -47 12 -86 23 -88 24 -2 1 6 12 17 23 12 12 24 35 27 50 4 17
14 31 25 34 10 3 21 17 25 32 5 22 -3 40 -45 101 -29 41 -48 74 -44 74 4 0 2
4 -5 8 -21 14 -142 195 -142 214 0 24 6 23 95 -13 56 -22 85 -29 104 -23 14 4
31 6 38 5 18 -3 26 35 25 123 -1 94 -18 120 -77 120 -45 0 -67 -22 -74 -75 -5
-37 -12 -45 -58 -75 l-53 -34 0 67 c0 36 -3 63 -7 59 -4 -3 -14 15 -22 41 -10
33 -15 106 -18 238 -1 105 -6 247 -10 316 -9 139 -10 141 -100 243 -41 47
-130 93 -251 131 -24 7 -52 21 -62 30 -19 17 -80 38 -80 27z m-512 -820 c18
-87 19 -86 -37 -79 l-49 6 -5 -47 c-4 -26 -9 -74 -13 -108 l-6 -60 43 -14 c53
-16 60 -22 51 -37 -9 -14 -75 7 -122 39 -14 9 -71 33 -128 54 -56 21 -98 41
-92 44 6 4 -8 12 -31 19 -23 7 -47 17 -53 21 -86 69 -107 100 -99 150 6 39 27
53 87 58 67 5 209 -35 253 -72 31 -26 67 -46 81 -46 5 0 29 29 52 65 23 36 45
65 49 65 4 0 12 -26 19 -58z m1051 -315 c0 -38 -3 -47 -9 -32 -12 29 -12 98 0
90 6 -3 10 -30 9 -58z m-740 -62 c62 -8 136 -12 165 -9 37 3 45 2 31 -5 -22
-11 -270 -14 -327 -5 -31 6 -38 11 -38 30 0 22 2 23 28 13 15 -6 78 -17 141
-24z m731 -476 c0 -10 -7 -19 -15 -19 -16 0 -19 9 -9 34 8 20 24 11 24 -15z"/>
<path d="M830 1959 c-24 -15 27 -49 73 -49 37 0 97 26 97 42 0 14 -41 9 -71
-9 -25 -15 -30 -15 -46 -1 -29 24 -38 27 -53 17z"/>
<path d="M460 1950 c-12 -7 -11 -13 10 -35 30 -32 71 -55 100 -55 17 0 20 -6
20 -45 0 -25 -2 -45 -4 -45 -3 0 -17 11 -32 25 -20 19 -38 25 -70 25 -54 0
-60 -10 -26 -42 47 -45 71 -52 168 -49 26 1 57 12 89 32 46 29 48 32 30 45
-28 21 -68 17 -109 -11 l-36 -24 0 45 c0 45 1 46 27 41 41 -8 133 36 133 64 0
12 -59 29 -78 22 -9 -3 -29 -15 -44 -25 -27 -19 -28 -19 -29 -1 0 16 -1 16 -9
-2 -5 -11 -9 -14 -9 -7 -1 18 -61 52 -91 52 -14 0 -32 -5 -40 -10z"/>
<path d="M931 1871 c-8 -5 -36 -7 -62 -4 -44 5 -72 -8 -54 -25 11 -11 157 -3
172 9 28 24 -23 41 -56 20z"/>
<path d="M940 1790 c-8 -5 -33 -7 -55 -4 -47 6 -79 -10 -55 -26 8 -6 31 -8 50
-4 19 3 45 6 57 6 12 0 30 9 39 19 16 18 16 19 -2 19 -10 0 -26 -5 -34 -10z"/>
<path d="M885 1698 c-21 -12 -35 -28 -35 -40 0 -17 20 -6 40 22 24 33 24 34
-5 18z"/>
<path d="M591 1671 c-1 -18 -5 -22 -18 -16 -42 17 -91 17 -123 0 -32 -16 -33
-18 -15 -31 28 -20 83 -28 120 -17 l33 10 6 -45 c3 -25 5 -47 3 -48 -2 -2 -19
1 -39 7 -28 7 -45 6 -77 -7 -23 -9 -41 -20 -41 -25 0 -20 46 -31 106 -26 l62
5 6 -30 c10 -51 8 -58 -22 -58 -35 0 -68 -23 -87 -61 -14 -26 -14 -30 0 -35
27 -11 81 6 105 31 l24 26 14 -23 13 -23 -5 26 c-5 23 -3 25 23 21 26 -3 30 0
41 33 7 20 10 39 6 42 -8 9 -53 -5 -70 -22 -18 -18 -23 -11 -32 43 l-6 41 48
-2 c54 -2 114 18 114 39 0 29 -96 35 -137 8 -14 -8 -27 -14 -29 -12 -2 3 -7
24 -10 49 l-6 44 54 0 c36 0 63 6 83 19 27 18 28 19 10 32 -25 18 -95 17 -120
-2 -18 -14 -21 -13 -27 8 l-6 23 -1 -24z"/>
<path d="M5395 1645 c-21 -20 -25 -34 -25 -82 0 -67 10 -133 19 -133 4 0 37
28 74 63 78 73 85 100 38 148 -36 36 -73 37 -106 4z"/>
<path d="M5172 1507 c-41 -43 -24 -98 60 -196 15 -17 29 -31 31 -31 3 0 12 12
22 26 9 15 12 23 6 20 -14 -9 -14 -1 4 58 21 68 19 93 -10 121 -32 33 -83 34
-113 2z"/>
<path d="M5355 1410 c-3 -6 1 -7 9 -4 18 7 21 14 7 14 -6 0 -13 -4 -16 -10z"/>
<path d="M5319 1363 l-24 -28 28 24 c15 14 27 26 27 28 0 8 -8 1 -31 -24z"/>
<path d="M5301 1303 c-30 -32 -51 -52 -47 -45 4 6 5 12 2 12 -3 0 -12 -13 -20
-29 l-15 -29 37 -6 c20 -3 67 -6 104 -6 60 0 69 3 87 26 44 56 8 134 -61 134
-26 0 -42 -10 -87 -57z"/>
<path d="M5873 1338 c-25 -27 -76 -168 -61 -168 16 0 141 39 154 47 16 12 44
56 44 69 0 7 -12 26 -26 43 -32 39 -80 42 -111 9z"/>
<path d="M5615 1305 c-30 -29 -31 -58 -6 -153 10 -39 17 -74 15 -77 -15 -22
23 21 65 74 41 51 51 71 51 102 0 70 -77 103 -125 54z"/>
<path d="M665 1283 c6 -20 3 -23 -22 -23 -46 0 -114 -84 -75 -92 44 -10 122
36 122 71 -1 9 -7 27 -16 41 -14 23 -14 23 -9 3z"/>
<path d="M5181 1104 c0 -11 3 -14 6 -6 3 7 2 16 -1 19 -3 4 -6 -2 -5 -13z"/>
<path d="M677 1090 c-10 -37 -8 -70 3 -70 17 0 22 25 12 61 -8 33 -9 33 -15 9z"/>
<path d="M5675 1079 c-27 -10 -55 -17 -61 -15 -7 3 -25 -10 -40 -27 -16 -18
-23 -27 -16 -21 10 9 31 2 87 -27 100 -53 143 -52 171 3 18 35 11 61 -23 88
-32 25 -54 25 -118 -1z"/>
<path d="M5172 1060 c0 -14 2 -19 5 -12 2 6 2 18 0 25 -3 6 -5 1 -5 -13z"/>
<path d="M5494 958 l-29 -33 33 29 c17 17 32 31 32 33 0 8 -8 1 -36 -29z"/>
<path d="M5412 720 c95 -111 147 -134 193 -84 31 33 32 63 4 98 -22 27 -23 28
-124 24 l-103 -3 30 -35z"/>
</g>
</svg>
